<?xml version="1.0" standalone="no"?>
<!DOCTYPE svg PUBLIC "-//W3C//DTD SVG 20010904//EN"
 "http://www.w3.org/TR/2001/REC-SVG-20010904/DTD/svg10.dtd">
<svg version="1.0" xmlns="http://www.w3.org/2000/svg"
 width="260.000000pt" height="260.000000pt" viewBox="0 0 260.000000 260.000000"
 preserveAspectRatio="xMidYMid meet">
<metadata>
Created by potrace 1.11, written by Peter Selinger 2001-2013
</metadata>
<g transform="translate(0.000000,260.000000) scale(0.100000,-0.100000)"
fill="#000000" stroke="none">
<path d="M1380 2490 c-97 -13 -148 -30 -338 -116 -29 -13 -56 -24 -59 -24 -11
0 -197 -130 -278 -195 -85 -68 -180 -177 -260 -300 -21 -33 -53 -77 -70 -97
-33 -40 -100 -170 -130 -253 -10 -27 -28 -93 -40 -145 -12 -52 -30 -117 -39
-143 -9 -26 -16 -67 -16 -90 0 -23 -6 -69 -14 -102 -7 -33 -14 -100 -15 -149
-1 -49 -4 -93 -6 -96 -8 -13 15 -265 32 -348 21 -106 63 -176 110 -180 31 -3
105 27 118 48 10 17 42 11 72 -13 40 -33 119 -77 137 -77 8 0 39 21 67 46 48
42 54 45 88 38 124 -27 141 8 101 195 -23 109 -36 262 -26 315 9 45 23 46 119
7 119 -49 229 -66 345 -53 53 6 124 21 157 33 33 11 100 33 148 49 l88 28 -5
-66 c-3 -37 -13 -101 -22 -142 -29 -133 -40 -209 -36 -242 2 -18 5 -55 7 -83
10 -138 28 -187 73 -203 38 -13 80 -5 119 24 17 13 35 24 40 24 5 0 33 25 63
55 30 30 60 55 67 55 7 0 31 -16 52 -36 23 -20 54 -37 74 -41 31 -5 38 -1 68
33 72 81 79 86 102 79 52 -16 78 -17 102 -1 29 19 65 85 65 118 0 29 -27 158
-40 193 -5 14 -10 55 -10 91 0 66 -17 181 -51 338 -12 57 -19 130 -19 200 0
61 -5 152 -10 201 -29 272 -40 366 -50 420 -27 139 -49 213 -77 255 -17 25
-37 56 -46 70 -10 17 -40 35 -88 53 -41 16 -113 48 -160 73 -48 24 -96 44
-107 44 -11 0 -41 17 -65 38 -66 58 -211 89 -337 72z m145 -596 c8 -20 15 -43
15 -51 0 -8 11 -38 23 -66 13 -29 37 -92 53 -142 15 -49 39 -112 51 -138 34
-71 55 -180 48 -257 -20 -232 -25 -248 -80 -274 -52 -25 -131 -55 -175 -67
-19 -6 -44 -14 -55 -19 -18 -8 -44 -13 -186 -35 -56 -9 -253 41 -294 75 -5 4
-29 13 -52 19 -78 21 -148 127 -179 270 -10 46 -24 89 -30 96 -23 23 -54 85
-54 109 0 30 24 50 85 70 28 9 64 23 80 30 17 8 41 19 55 24 14 6 50 22 81 35
30 14 72 30 92 35 71 20 243 124 367 222 69 54 128 99 132 100 4 0 15 -16 23
-36z"/>
<path d="M998 1557 c-45 -23 -68 -43 -82 -69 -19 -34 -19 -37 -3 -62 23 -34
41 -33 80 7 42 43 80 67 110 67 24 0 24 -1 14 -52 -10 -47 -9 -52 12 -69 30
-24 56 -11 76 38 40 96 -1 173 -93 173 -37 0 -67 -9 -114 -33z"/>
<path d="M1400 1563 c-80 -32 -90 -39 -90 -69 0 -42 36 -49 105 -20 33 13 63
22 66 20 4 -2 3 -25 -2 -51 -7 -36 -6 -52 6 -70 30 -45 69 -17 84 60 27 146
-27 187 -169 130z"/>
<path d="M1225 1187 c-87 -48 -118 -61 -149 -59 -43 1 -56 13 -56 53 0 36 -21
52 -53 40 -66 -25 -37 -155 43 -196 47 -24 81 -18 165 31 44 25 106 59 138 76
40 22 59 39 64 56 7 28 -7 56 -28 59 -8 1 -63 -26 -124 -60z"/>
</g>
</svg>
